<svg width="1767" height="505" viewBox="0 0 1767 505" fill="none" xmlns="http://www.w3.org/2000/svg">
<path d="M251.5 441.888C356.647 441.888 441.886 356.65 441.886 251.503C441.886 146.356 356.647 61.1172 251.5 61.1172C146.353 61.1172 61.1145 146.356 61.1145 251.503C61.1145 356.65 146.353 441.888 251.5 441.888Z" fill="white"/>
<path d="M251.5 2.73438C114.111 2.73438 2.73633 114.109 2.73633 251.493C2.73633 388.887 114.106 500.262 251.5 500.262C388.874 500.262 500.264 388.887 500.264 251.493C500.264 114.109 388.874 2.73438 251.5 2.73438ZM173.555 348.778C150.171 323.749 130.041 293.831 119.095 259.013C108.165 224.195 107.562 188.145 112.42 154.218C135.03 179.509 154.657 209.598 165.608 244.401C176.538 279.218 177.639 315.092 173.555 348.778ZM285.271 354.613C275.569 375.83 263.849 395.291 251.887 412.428C220.606 370.1 190.949 313.578 190.949 251.508C190.949 189.423 220.606 132.901 251.872 90.5582C272.561 120.175 292.52 156.753 302.62 197.335C306.961 214.729 309.496 232.867 309.496 251.508C309.501 288.458 299.557 323.432 285.271 354.613ZM380.379 259.501C368.07 293.861 347.281 323.12 323.68 347.491C320.17 313.417 322.177 277.413 334.5 243.068C346.808 208.708 368.11 179.619 392.471 155.506C395.237 189.322 392.687 225.156 380.379 259.501Z" fill="#BC9A71"/>
<path d="M551.625 416V83.5H618.125V416H551.625ZM628.1 349.5H774.4V416H665.15L628.1 349.5ZM913.838 174.7C930.938 174.7 946.93 178.025 961.813 184.675C976.697 191.008 989.68 199.717 1000.76 210.8C1011.85 221.883 1020.56 234.867 1026.89 249.75C1033.54 264.633 1036.86 280.467 1036.86 297.25C1036.86 314.033 1033.54 329.867 1026.89 344.75C1020.56 359.633 1011.85 372.617 1000.76 383.7C989.68 394.783 976.697 403.65 961.813 410.3C946.93 416.633 930.938 419.8 913.838 419.8C896.738 419.8 880.747 416.633 865.863 410.3C850.98 403.65 837.997 394.783 826.913 383.7C815.83 372.617 806.963 359.633 800.313 344.75C793.98 329.867 790.813 314.033 790.813 297.25C790.813 280.467 793.98 264.633 800.313 249.75C806.963 234.867 815.83 221.883 826.913 210.8C837.997 199.717 850.98 191.008 865.863 184.675C880.747 178.025 896.738 174.7 913.838 174.7ZM913.838 363.275C921.755 363.275 929.038 361.533 935.688 358.05C942.655 354.567 948.672 349.817 953.738 343.8C959.122 337.467 963.238 330.342 966.088 322.425C969.255 314.192 970.838 305.325 970.838 295.825C970.838 286.958 969.255 278.567 966.088 270.65C963.238 262.417 959.122 255.45 953.738 249.75C948.672 243.733 942.655 238.983 935.688 235.5C929.038 232.017 921.755 230.275 913.838 230.275C905.922 230.275 898.48 232.017 891.513 235.5C884.547 238.983 878.372 243.733 872.988 249.75C867.922 255.45 863.805 262.417 860.638 270.65C857.788 278.567 856.363 286.958 856.363 295.825C856.363 305.325 857.788 314.192 860.638 322.425C863.805 330.342 867.922 337.467 872.988 343.8C878.372 349.817 884.547 354.567 891.513 358.05C898.48 361.533 905.922 363.275 913.838 363.275ZM1225.73 203.2V255.925H1190.58L1161.13 203.2H1225.73ZM1153.06 334.775C1153.06 342.058 1155.59 348.233 1160.66 353.3C1166.04 358.367 1172.37 360.9 1179.66 360.9H1225.73V416H1179.66C1167.31 416 1155.59 413.783 1144.51 409.35C1133.74 404.6 1124.24 398.267 1116.01 390.35C1108.09 382.117 1101.76 372.617 1097.01 361.85C1092.26 351.083 1089.88 339.525 1089.88 327.175V255.925H1055.68V203.2H1089.88V117.225H1153.06V334.775ZM1490.04 178.5V417.425H1424.96V178.5H1490.04ZM1390.29 356.15L1413.09 397.475V397.95C1396.62 412.517 1376.2 419.8 1351.81 419.8C1313.18 419.8 1285.79 409.35 1269.64 388.45C1254.76 369.767 1247.31 340 1247.31 299.15V178.5H1312.39V299.15C1312.39 307.7 1312.55 315.933 1312.86 323.85C1313.5 331.767 1315.24 338.733 1318.09 344.75C1321.26 350.767 1326.01 355.675 1332.34 359.475C1338.67 362.958 1347.7 364.7 1359.41 364.7C1364.8 364.7 1370.02 363.908 1375.09 362.325C1380.16 360.742 1384.91 358.683 1389.34 356.15H1390.29ZM1635.58 274.925C1646.03 278.408 1655.53 282.05 1664.08 285.85C1672.95 289.333 1680.55 293.608 1686.88 298.675C1693.53 303.742 1698.6 309.917 1702.08 317.2C1705.88 324.167 1707.78 332.558 1707.78 342.375V342.85C1707.78 366.917 1699.71 385.758 1683.56 399.375C1667.72 412.992 1645.4 419.8 1616.58 419.8C1598.53 419.8 1580.8 416.792 1563.38 410.775C1545.97 404.442 1529.66 395.575 1514.46 384.175L1513.98 383.7L1514.46 383.225L1546.76 332.4L1547.23 332.875C1556.73 343.008 1567.5 350.767 1579.53 356.15C1591.57 361.217 1604.39 363.75 1618.01 363.75C1636.69 363.75 1646.03 357.733 1646.03 345.7C1646.03 340 1643.02 335.725 1637.01 332.875C1630.99 330.025 1623.87 327.333 1615.63 324.8C1614.05 324.167 1612.47 323.85 1610.88 323.85C1609.62 323.533 1608.19 323.058 1606.61 322.425C1597.11 319.892 1587.61 317.2 1578.11 314.35C1568.61 311.183 1560.06 307.067 1552.46 302C1544.86 296.617 1538.52 289.967 1533.46 282.05C1528.71 273.817 1526.33 263.367 1526.33 250.7V249.75C1526.33 238.667 1528.39 228.533 1532.51 219.35C1536.62 210.167 1542.48 202.25 1550.08 195.6C1557.68 188.95 1566.87 183.883 1577.63 180.4C1588.4 176.6 1600.27 174.7 1613.26 174.7C1628.46 174.7 1643.82 177.075 1659.33 181.825C1674.85 186.258 1689.26 192.908 1702.56 201.775V202.725L1673.58 255.45L1673.11 254.975C1665.82 247.692 1656.8 241.992 1646.03 237.875C1635.27 233.442 1623.87 231.225 1611.83 231.225C1609.62 231.225 1607.08 231.383 1604.23 231.7C1601.38 232.017 1598.69 232.808 1596.16 234.075C1593.94 235.342 1592.04 237.083 1590.46 239.3C1588.87 241.2 1588.08 244.05 1588.08 247.85C1588.08 250.7 1589.35 253.392 1591.88 255.925C1594.42 258.142 1597.58 260.358 1601.38 262.575C1605.5 264.475 1609.93 266.375 1614.68 268.275C1619.75 270.175 1624.66 271.917 1629.41 273.5C1630.36 273.5 1631.31 273.658 1632.26 273.975C1633.52 274.292 1634.63 274.608 1635.58 274.925Z" fill="white"/>
</svg>
