<svg width="345" height="104" viewBox="0 0 345 104" fill="none" xmlns="http://www.w3.org/2000/svg">
<rect width="345" height="104" fill="white"/>
<g clip-path="url(#clip0_97_2)">
<path d="M76.2665 64.344C55.9039 62.1057 39.3099 47.4304 34.3049 28.1005C33.8729 26.4254 33.5303 24.7207 33.2771 22.9715C33.1877 22.3638 33.1132 21.7708 33.0536 21.1483C33.2771 21.2372 33.4856 21.341 33.7091 21.4299C34.3347 21.6967 34.9454 21.9784 35.5561 22.26C53.8184 30.7687 68.4015 45.7998 76.2665 64.344Z" fill="black"/>
<path d="M95.9736 65.7523C84.5187 71.8447 71.4402 75.2986 57.5424 75.2986C55.8145 75.2986 54.0866 75.2393 52.3884 75.1356C46.0577 70.6737 40.8293 64.7443 37.2096 57.8513V57.8365C35.3476 53.7304 33.8133 49.4464 32.6515 45.029C30.9235 38.4622 30 31.5692 30 24.4539C30 23.6683 30.0149 22.8826 30.0298 22.097C30.3873 25.121 31.0129 28.0709 31.8769 30.917C32.4131 32.6958 33.0536 34.4302 33.7686 36.12C41.1719 53.4784 57.8105 66.0043 77.5475 67.5607C78.9179 67.6645 80.3181 67.7238 81.7183 67.7238C83.1334 67.7238 84.5336 67.6645 85.9041 67.5607C89.3748 67.2791 92.7412 66.6713 95.9736 65.7523Z" fill="black"/>
<path d="M133.392 24.4539C133.392 27.137 133.258 29.8052 133.005 32.429C132.573 36.8019 131.798 41.0711 130.696 45.2069V45.2217C129.549 49.5798 128.029 53.7897 126.197 57.8217C119.226 71.1629 106.237 80.9019 90.7899 83.4367C90.775 83.4367 90.775 83.4367 90.7601 83.4367C88.9428 83.6295 87.1106 83.7777 85.2635 83.8518C84.1017 83.9111 82.9398 83.9259 81.7779 83.9259H81.6885C80.3181 83.9259 78.9626 83.8963 77.6071 83.8222C76.0281 83.748 74.4492 83.6294 72.9 83.4516C67.4779 82.5918 62.3389 80.8426 57.6616 78.3671C82.0907 78.3375 104.107 68.0054 119.539 51.5069C119.569 51.4772 119.584 51.4476 119.613 51.4327C120.03 51.0029 120.433 50.5582 120.82 50.1134C124.44 46.0222 127.404 41.3676 129.594 36.2979C130.323 34.608 130.964 32.8737 131.5 31.1097C132.096 29.1826 132.573 27.2111 132.945 25.2099C133.109 24.3205 133.243 23.4311 133.362 22.5269C133.377 23.0605 133.377 23.609 133.377 24.1426C133.392 24.2316 133.392 24.3353 133.392 24.4539Z" fill="black"/>
<path d="M130.413 21.1631C130.338 21.8301 130.249 22.512 130.16 23.1791C129.906 24.9134 129.549 26.6181 129.102 28.2932C127.121 35.7939 123.397 42.5831 118.392 48.216C118.168 48.468 117.945 48.72 117.707 48.9572C109.916 57.3473 99.2209 63.0099 87.2 64.3292C95.0501 45.8294 109.603 30.8132 127.836 22.3045C128.447 22.0229 129.057 21.7412 129.683 21.4744C129.921 21.3706 130.16 21.2669 130.413 21.1631Z" fill="black"/>
<path d="M81.7779 61.6313C86.4836 61.6313 90.2983 55.353 90.2983 47.6083C90.2983 39.8635 86.4836 33.5852 81.7779 33.5852C77.0722 33.5852 73.2575 39.8635 73.2575 47.6083C73.2575 55.353 77.0722 61.6313 81.7779 61.6313Z" fill="black"/>
<path d="M175.502 69.4136H151.565V36.4461H159.013V62.3576H175.502V69.4136V69.4136Z" fill="black"/>
<path d="M181.014 53.004C181.014 48.216 182.667 44.1692 185.989 40.8635C189.341 37.5282 193.452 35.868 198.323 35.868C203.194 35.868 207.29 37.5282 210.612 40.8635C213.963 44.1692 215.632 48.2012 215.632 52.9595C215.632 57.7179 213.978 61.7499 210.657 65.0555C207.305 68.3315 203.179 69.9621 198.278 69.9621C193.348 69.9621 189.236 68.3315 185.944 65.0555C182.667 61.7795 181.014 57.7623 181.014 53.004ZM198.323 62.6837C201.049 62.6837 203.328 61.7647 205.175 59.9117C207.022 58.0143 207.946 55.687 207.916 52.9595C207.856 50.0986 206.918 47.7713 205.086 45.9628C203.239 44.095 200.974 43.1463 198.323 43.1463C195.597 43.1463 193.333 44.0802 191.515 45.9628C189.668 47.8602 188.73 50.2023 188.73 52.9595C188.73 55.7019 189.654 58.0143 191.515 59.9117C193.363 61.7647 195.642 62.6837 198.323 62.6837Z" fill="black"/>
<path d="M230.692 69.4136V43.5466H221.322V36.4461H247.464V43.5466H238.139V69.4136H230.692Z" fill="black"/>
<path d="M268.974 69.9918C265.205 69.9918 262.062 68.9096 259.515 66.7306C256.968 64.5663 255.702 61.32 255.702 57.0063V36.4461H263.15V56.695C263.15 58.711 263.671 60.2527 264.699 61.2903C265.727 62.328 267.157 62.8468 268.974 62.8468C270.732 62.8468 272.147 62.3132 273.189 61.2607C274.232 60.2082 274.753 58.6814 274.753 56.695V36.4461H282.201V57.0212C282.201 61.3052 280.95 64.5515 278.433 66.7454C275.96 68.9096 272.802 69.9918 268.974 69.9918Z" fill="black"/>
<path d="M303.398 69.9918C300.762 69.9918 298.319 69.4729 296.069 68.4501C293.805 67.4273 291.928 65.9449 290.394 64.0179L294.431 58.7555C296.918 61.6758 299.912 63.1285 303.443 63.1285C304.724 63.1285 305.767 62.8468 306.586 62.2984C307.39 61.7499 307.792 61.0235 307.792 60.1341C307.792 58.9186 306.839 57.8958 304.917 57.0508L301.953 55.9835C300.136 55.3016 298.706 54.6939 297.693 54.1602C294.133 52.2332 292.36 49.4463 292.36 45.8146C292.36 42.9536 293.448 40.5967 295.637 38.7141C297.812 36.8463 300.657 35.8976 304.158 35.8976C308.552 35.8976 312.306 37.3503 315.404 40.2706L311.725 45.7553C310.772 44.8659 309.595 44.1544 308.209 43.6207C306.824 43.0871 305.498 42.8202 304.247 42.8202C303.026 42.8202 302.057 43.0722 301.357 43.5614C300.657 44.0506 300.3 44.7176 300.3 45.5478C300.3 46.6744 301.194 47.6379 302.996 48.4532L306.228 49.7428C308.224 50.5136 309.505 51.0325 310.042 51.2993C314.019 53.0781 316 55.8798 316 59.6894C316 62.7282 314.838 65.1889 312.499 67.1012C310.206 69.0282 307.167 69.9918 303.398 69.9918Z" fill="black"/>
</g>
<defs>
<clipPath id="clip0_97_2">
<rect width="286" height="63" fill="white" transform="translate(30 21)"/>
</clipPath>
</defs>
</svg>
