<svg width="256" height="256" viewBox="0 0 256 256" fill="none" xmlns="http://www.w3.org/2000/svg">
<rect width="256" height="256" fill="white"/>
<g clip-path="url(#clip0_2_2)">
<path d="M114.969 155.429C67.885 150.211 29.51 116.077 17.9651 71.1546C16.9659 67.2613 16.1557 63.2733 15.5751 59.2178C15.3725 57.8389 15.1835 56.4194 15.035 55C15.5481 55.2163 16.0477 55.4461 16.5608 55.6624C17.9921 56.2843 19.4234 56.9331 20.8412 57.5956C63.078 77.3596 96.7946 112.305 114.969 155.429Z" fill="black"/>
<path d="M160.514 158.714C134.035 172.895 103.803 180.925 71.6793 180.925C67.6825 180.925 63.6991 180.803 59.7698 180.56C45.1193 170.191 33.0477 156.416 24.6895 140.383C24.6895 140.383 24.676 140.369 24.676 140.356C20.3686 130.812 16.8308 120.862 14.1438 110.561C10.1334 95.2581 8.0135 79.2117 8.0135 62.6515C8.0135 60.813 8.04051 58.988 8.09452 57.163C8.9317 64.2061 10.363 71.06 12.3614 77.6706C13.6037 81.8072 15.0755 85.8493 16.7363 89.7831C33.8309 130.163 72.3005 159.282 117.94 162.918C121.127 163.175 124.34 163.297 127.595 163.297C130.849 163.297 134.089 163.175 137.276 162.905C145.256 162.256 153.034 160.836 160.514 158.714Z" fill="black"/>
<path d="M247 62.6515C247 68.9106 246.703 75.0885 246.109 81.1854C245.123 91.3378 243.327 101.274 240.789 110.899C240.789 110.913 240.789 110.926 240.789 110.94C238.129 121.065 234.631 130.866 230.405 140.248C214.283 171.286 184.239 193.93 148.551 199.851C148.537 199.851 148.51 199.851 148.497 199.864C144.298 200.324 140.058 200.649 135.791 200.824C133.117 200.946 130.43 201 127.73 201H127.527C124.367 201 121.221 200.919 118.102 200.757C114.443 200.581 110.811 200.297 107.205 199.905C94.6611 197.904 82.7921 193.849 71.9764 188.09C128.459 188.009 179.337 164 215.025 125.621C215.079 125.567 215.147 125.499 215.201 125.445C216.16 124.431 217.091 123.417 217.996 122.363C226.354 112.859 233.227 102.031 238.277 90.2293C239.952 86.3089 241.437 82.2804 242.693 78.1437C244.07 73.6691 245.177 69.0863 246.028 64.4089C246.406 62.3406 246.716 60.2587 246.987 58.1633C247.014 59.407 247.041 60.6643 247.041 61.9215C247 62.1513 247 62.4081 247 62.6515Z" fill="black"/>
<path d="M240.114 55.0135C239.952 56.5817 239.749 58.1363 239.519 59.6909C238.925 63.733 238.102 67.6939 237.089 71.5872C232.525 89.0396 223.924 104.843 212.325 117.942C211.798 118.524 211.285 119.105 210.758 119.673C192.746 139.18 168.008 152.347 140.22 155.429C158.381 112.359 192.017 77.4543 234.159 57.6767C235.563 57.0143 236.981 56.3654 238.412 55.7435C238.979 55.5002 239.546 55.2569 240.114 55.0135Z" fill="black"/>
<path d="M127.703 149.102C138.583 149.102 147.403 134.504 147.403 116.496C147.403 98.4876 138.583 83.8891 127.703 83.8891C116.822 83.8891 108.002 98.4876 108.002 116.496C108.002 134.504 116.822 149.102 127.703 149.102Z" fill="black"/>
</g>
<defs>
<clipPath id="clip0_2_2">
<rect width="239" height="146" fill="white" transform="translate(8 55)"/>
</clipPath>
</defs>
</svg>
