<?xml version="1.0" encoding="utf-8"?>
<!-- Generator: Adobe Illustrator 24.1.1, SVG Export Plug-In . SVG Version: 6.00 Build 0)  -->
<svg version="1.1" id="Layer_1" xmlns="http://www.w3.org/2000/svg" xmlns:xlink="http://www.w3.org/1999/xlink" x="0px" y="0px"
	 viewBox="0 0 1000 1000" style="enable-background:new 0 0 1000 1000;" xml:space="preserve">
<style type="text/css">
	.st0{fill:#FFFFFF;}
</style>
<circle class="st0" cx="500" cy="500" r="378.5"/>
<path d="M500,5.44C226.86,5.44,5.44,226.86,5.44,499.99c0,273.15,221.41,494.57,494.56,494.57c273.11,0,494.56-221.42,494.56-494.57
	C994.56,226.86,773.11,5.44,500,5.44z M345.04,693.4c-46.49-49.76-86.51-109.24-108.27-178.46
	c-21.73-69.22-22.93-140.89-13.27-208.34c44.95,50.28,83.97,110.1,105.74,179.29C350.97,555.11,353.16,626.43,345.04,693.4z
	 M567.14,705c-19.29,42.18-42.59,80.87-66.37,114.94c-62.19-84.15-121.15-196.52-121.15-319.92c0-123.43,58.96-235.8,121.12-319.98
	c41.13,58.88,80.81,131.6,100.89,212.28c8.63,34.58,13.67,70.64,13.67,107.7C615.31,573.48,595.54,643.01,567.14,705z
	 M756.22,515.91c-24.47,68.31-65.8,126.48-112.72,174.93c-6.98-67.74-2.99-139.32,21.51-207.6
	c24.47-68.31,66.82-126.14,115.25-174.08C785.76,376.39,780.69,447.63,756.22,515.91z"/>
</svg>
