<?xml version="1.0" encoding="utf-8"?>
<!-- Generator: Adobe Illustrator 24.3.2, SVG Export Plug-In . SVG Version: 6.00 Build 0)  -->
<svg version="1.2" baseProfile="tiny" id="Layer_1" xmlns="http://www.w3.org/2000/svg" xmlns:xlink="http://www.w3.org/1999/xlink"
	 x="0px" y="0px" viewBox="0 0 960 212" overflow="visible" xml:space="preserve">
<g>
	<g>
		<g>
			<path d="M155.3,145.6C87,138,31.2,88.5,14.5,23.4C13,17.7,11.8,12,11,6.1c-0.3-2-0.6-4.1-0.8-6.1c0.7,0.3,1.5,0.6,2.2,1
				c2.1,0.9,4.2,1.9,6.2,2.8C80,32.4,128.9,83.1,155.3,145.6z"/>
			<path d="M221.4,150.4c-38.4,20.6-82.4,32.2-129,32.2c-5.8,0-11.6-0.2-17.3-0.5c-21.3-15-38.8-35-50.9-58.3c0,0,0,0,0,0
				c-6.3-13.8-11.4-28.3-15.3-43.2C3.1,58.3,0,35.1,0,11c0-2.7,0-5.3,0.1-8c1.2,10.2,3.3,20.1,6.2,29.7c1.8,6,3.9,11.9,6.3,17.6
				c24.8,58.6,80.7,100.8,147,106.1c4.6,0.4,9.3,0.6,14,0.6c4.7,0,9.4-0.2,14.1-0.6C199.3,155.5,210.6,153.5,221.4,150.4z"/>
			<path d="M347,11c0,9.1-0.4,18-1.3,26.9c0,0,0,0,0,0c-1.4,14.7-4,29.1-7.7,43.1c0,0,0,0,0,0.1c-3.9,14.7-8.9,28.9-15.1,42.5
				c-23.4,45-67,77.9-118.9,86.4c0,0-0.1,0-0.1,0c-6.1,0.7-12.2,1.1-18.5,1.4c-3.9,0.2-7.8,0.3-11.7,0.3h-0.3
				c-4.6,0-9.2-0.1-13.7-0.4c-5.3-0.3-10.6-0.7-15.8-1.2c-18.2-2.9-35.4-8.8-51.1-17.1c82-0.1,155.9-35,207.7-90.6
				c0.1-0.1,0.2-0.2,0.2-0.3c1.4-1.5,2.7-2.9,4.1-4.5C317,83.9,327,68.1,334.3,51c2.4-5.7,4.6-11.5,6.4-17.5
				c2-6.5,3.6-13.1,4.8-19.9c0.5-3,1-6,1.4-9.1c0,1.8,0.1,3.6,0.1,5.5C347,10.3,347,10.7,347,11z"/>
			<path d="M337,0c-0.2,2.3-0.5,4.5-0.9,6.8c-0.9,5.9-2.1,11.6-3.5,17.3c-6.6,25.3-19.1,48.2-36,67.2c-0.8,0.9-1.5,1.7-2.3,2.5
				c-26.1,28.3-62.1,47.4-102.4,51.9C218.4,83.2,267.2,32.5,328.4,3.8c2-1,4.1-1.9,6.2-2.8C335.4,0.7,336.2,0.3,337,0z"/>
		</g>
		<ellipse cx="173.8" cy="89.2" rx="28.6" ry="47.3"/>
	</g>
	<g>
		<path d="M488.4,162.7h-80.4V51.5h25V139h55.4V162.7z"/>
		<path d="M506.9,107.4c0-16.2,5.6-29.8,16.7-40.9c11.2-11.2,25-16.9,41.4-16.9c16.3,0,30.1,5.6,41.2,16.9
			c11.2,11.1,16.9,24.7,16.9,40.8c0,16.1-5.6,29.6-16.7,40.8c-11.2,11-25.1,16.6-41.5,16.6c-16.6,0-30.3-5.5-41.4-16.6
			C512.4,136.9,506.9,123.4,506.9,107.4z M565,140c9.1,0,16.8-3.1,23-9.3c6.2-6.4,9.3-14.2,9.2-23.5c-0.2-9.6-3.4-17.5-9.5-23.6
			c-6.2-6.3-13.8-9.5-22.7-9.5c-9.1,0-16.8,3.2-22.9,9.5c-6.2,6.4-9.3,14.3-9.3,23.6c0,9.2,3.1,17.1,9.3,23.5
			C548.4,136.9,556,140,565,140z"/>
		<path d="M673.7,162.7V75.5h-31.4V51.5h87.7v23.9h-31.3v87.3H673.7z"/>
		<path d="M802.2,164.7c-12.6,0-23.2-3.7-31.7-11c-8.5-7.3-12.8-18.3-12.8-32.8V51.5h25v68.3c0,6.8,1.7,12,5.2,15.5
			c3.5,3.5,8.2,5.3,14.4,5.3c5.9,0,10.6-1.8,14.1-5.3c3.5-3.6,5.3-8.7,5.3-15.4V51.5h25v69.4c0,14.4-4.2,25.4-12.6,32.8
			C825.6,161,815,164.7,802.2,164.7z"/>
		<path d="M917.7,164.7c-8.8,0-17-1.7-24.6-5.2c-7.6-3.5-13.9-8.4-19-15l13.5-17.8c8.3,9.8,18.4,14.7,30.2,14.7
			c4.3,0,7.8-0.9,10.5-2.8c2.7-1.9,4.1-4.3,4.1-7.3c0-4.1-3.2-7.6-9.6-10.4l-9.9-3.6c-6.1-2.3-10.9-4.4-14.3-6.2
			c-11.9-6.5-17.9-15.9-17.9-28.1c0-9.6,3.7-17.6,11-23.9c7.3-6.3,16.9-9.5,28.6-9.5c14.7,0,27.3,4.9,37.8,14.7L945.7,83
			c-3.2-3-7.1-5.4-11.8-7.2c-4.7-1.8-9.1-2.7-13.3-2.7c-4.1,0-7.3,0.8-9.7,2.5c-2.4,1.7-3.5,3.9-3.5,6.7c0,3.8,3,7.1,9,9.8l10.8,4.4
			c6.7,2.6,11,4.4,12.8,5.3c13.3,6,20,15.4,20,28.3c0,10.2-3.9,18.6-11.7,25C940.5,161.4,930.4,164.7,917.7,164.7z"/>
	</g>
</g>
</svg>
