<?xml version="1.0" encoding="utf-8"?>
<!-- Generator: Adobe Illustrator 24.1.1, SVG Export Plug-In . SVG Version: 6.00 Build 0)  -->
<svg version="1.1" id="Layer_1" xmlns="http://www.w3.org/2000/svg" xmlns:xlink="http://www.w3.org/1999/xlink" x="0px" y="0px"
	 viewBox="0 0 946.64 267" style="enable-background:new 0 0 946.64 267;" xml:space="preserve">
<style type="text/css">
	.st0{fill:#FFFFFF;}
</style>
<circle class="st0" cx="183.82" cy="132" r="91"/>
<path d="M179.32,18c-63.79,0-115.5,51.71-115.5,115.5c0,63.79,51.71,115.5,115.5,115.5c63.78,0,115.5-51.71,115.5-115.5
	C294.82,69.71,243.1,18,179.32,18z M143.13,178.67c-10.86-11.62-20.2-25.51-25.29-41.68c-5.08-16.17-5.36-32.9-3.1-48.66
	c10.5,11.74,19.61,25.71,24.69,41.87C144.51,146.37,145.02,163.03,143.13,178.67z M195,181.38c-4.5,9.85-9.95,18.89-15.5,26.84
	c-14.52-19.65-28.29-45.9-28.29-74.72c0-28.83,13.77-55.07,28.29-74.73c9.61,13.75,18.87,30.74,23.56,49.58
	c2.02,8.08,3.19,16.5,3.19,25.15C206.25,150.66,201.63,166.9,195,181.38z M239.16,137.21c-5.72,15.95-15.37,29.54-26.32,40.85
	c-1.63-15.82-0.7-32.54,5.02-48.48c5.71-15.95,15.61-29.46,26.92-40.65C246.06,104.63,244.87,121.27,239.16,137.21z"/>
<path d="M326.82,212.64V53h31.93v159.64H326.82z M363.54,180.71h70.24v31.93h-52.45L363.54,180.71z"/>
<path d="M500.83,96.79c8.21,0,15.89,1.57,23.03,4.68c7.15,3.12,13.38,7.34,18.7,12.67c5.32,5.32,9.53,11.56,12.66,18.7
	c3.12,7.15,4.68,14.75,4.68,22.81c0,8.06-1.57,15.66-4.68,22.81c-3.12,7.15-7.34,13.38-12.66,18.7c-5.32,5.32-11.55,9.55-18.7,12.66
	c-7.15,3.12-14.82,4.68-23.03,4.68c-8.21,0-15.89-1.57-23.04-4.68c-7.15-3.12-13.38-7.33-18.7-12.66
	c-5.32-5.32-9.55-11.56-12.65-18.7c-3.12-7.15-4.68-14.75-4.68-22.81c0-8.06,1.55-15.66,4.68-22.81c3.12-7.15,7.33-13.38,12.65-18.7
	c5.32-5.32,11.55-9.53,18.7-12.67C484.94,98.35,492.62,96.79,500.83,96.79z M500.83,187.33c3.8,0,7.33-0.84,10.61-2.51
	c3.27-1.67,6.16-4,8.67-6.96c2.51-2.96,4.49-6.39,5.93-10.26c1.44-3.88,2.17-8.1,2.17-12.66c0-4.26-0.73-8.32-2.17-12.19
	c-1.44-3.88-3.42-7.22-5.93-10.04c-2.51-2.81-5.4-5.05-8.67-6.72c-3.27-1.67-6.81-2.51-10.61-2.51s-7.37,0.84-10.72,2.51
	c-3.35,1.67-6.28,3.92-8.77,6.72c-2.51,2.81-4.48,6.16-5.93,10.04c-1.44,3.88-2.16,7.95-2.16,12.19c0,4.56,0.71,8.79,2.16,12.66
	c1.45,3.88,3.42,7.3,5.93,10.26c2.51,2.96,5.43,5.29,8.77,6.96C493.46,186.49,497.03,187.33,500.83,187.33z"/>
<path d="M615.77,173.65c0,3.5,1.26,6.46,3.77,8.89c2.51,2.43,5.5,3.65,9,3.65h22.12v26.46h-22.12c-5.93,0-11.51-1.1-16.76-3.3
	c-5.24-2.2-9.81-5.24-13.68-9.12c-3.88-3.88-6.96-8.39-9.24-13.58c-2.28-5.17-3.42-10.72-3.42-16.65v-34.21h-16.42v-25.32h16.42
	V69.19h30.33V173.65z M650.67,110.47v25.32h-16.88l-14.14-25.32H650.67z"/>
<path d="M729.58,183.91l10.95,19.84v0.23c-7.91,6.99-17.71,10.49-29.42,10.49c-18.55,0-31.7-5.02-39.45-15.05
	c-7.15-8.97-10.72-23.26-10.72-42.88V98.61h31.24v57.93c0,4.11,0.12,8.06,0.35,11.86c0.23,3.8,1.06,7.15,2.51,10.04
	c1.45,2.89,3.68,5.21,6.74,6.96c3.04,1.75,7.37,2.62,13,2.62c2.59,0,5.09-0.38,7.53-1.14c2.43-0.76,4.71-1.75,6.84-2.96H729.58z
	 M777.47,98.61v114.72h-31.24V98.61H777.47z"/>
<path d="M847.26,144.91c5.02,1.67,9.61,3.39,13.8,5.14c4.18,1.75,7.83,3.85,10.95,6.28s5.55,5.35,7.3,8.77s2.63,7.5,2.63,12.19v0.23
	c0,11.56-3.85,20.6-11.52,27.14c-7.68,6.54-18.44,9.81-32.28,9.81c-8.67,0-17.18-1.49-25.54-4.49c-8.36-3-16.19-7.24-23.49-12.77
	l-0.23-0.23l0.23-0.23l15.51-24.48l0.23,0.23c4.56,4.87,9.73,8.56,15.51,11.05c5.78,2.51,11.94,3.77,18.47,3.77
	c8.97,0,13.46-2.87,13.46-8.65c0-2.74-1.44-4.77-4.33-6.14c-2.89-1.37-6.31-2.66-10.26-3.88c-0.76-0.3-1.49-0.49-2.17-0.56
	c-0.68-0.08-1.41-0.26-2.16-0.58c-4.56-1.22-9.12-2.54-13.68-3.98c-4.56-1.44-8.67-3.42-12.32-5.92c-3.65-2.49-6.66-5.69-9-9.55
	c-2.36-3.86-3.54-8.83-3.54-14.9v-0.46c0-5.31,0.99-10.16,2.97-14.57c1.98-4.39,4.79-8.19,8.44-11.37
	c3.65-3.19,8.06-5.64,13.23-7.39c5.17-1.75,10.87-2.62,17.1-2.62c7.3,0,14.67,1.11,22.12,3.31c7.45,2.2,14.37,5.44,20.75,9.7v0.46
	l-13.91,25.31l-0.23-0.23c-3.5-3.5-7.83-6.28-13-8.33c-5.17-2.05-10.64-3.07-16.42-3.07c-1.06,0-2.28,0.08-3.65,0.23
	c-1.37,0.15-2.63,0.53-3.77,1.14c-1.14,0.61-2.1,1.41-2.86,2.4c-0.76,0.99-1.14,2.4-1.14,4.21c0,1.37,0.61,2.63,1.83,3.77
	c1.22,1.14,2.77,2.21,4.67,3.19c1.9,0.99,4.03,1.93,6.39,2.86c2.36,0.91,4.68,1.75,6.96,2.51c0.46,0,0.94,0.08,1.47,0.23
	C846.3,144.61,846.8,144.76,847.26,144.91z"/>
</svg>
