<?xml version="1.0" encoding="utf-8"?>
<!-- Generator: Adobe Illustrator 24.1.1, SVG Export Plug-In . SVG Version: 6.00 Build 0)  -->
<svg version="1.1" id="Layer_1" xmlns="http://www.w3.org/2000/svg" xmlns:xlink="http://www.w3.org/1999/xlink" x="0px" y="0px"
	 viewBox="0 0 1080 1080" style="enable-background:new 0 0 1080 1080;" xml:space="preserve">
<g>
	<path d="M409.21,580.03c-3.35-4.12-6.5-7.54-9.65-10.44l-0.74-0.69c-4.93-4.48-10.36-8.49-16.15-11.94
		c-15.14-8.97-32.68-13.71-50.73-13.71c-11.44,0-22.68,1.91-33.23,5.59c-7.01-17.51-10.45-44.22-10.45-78.73h-18.09
		c0,37.36,3.91,66.28,12.09,86.26c-0.34,0.2-0.7,0.39-1.03,0.6c-5.79,3.42-11.22,7.44-16.19,11.97l-0.71,0.64
		c-0.15,0.15-0.31,0.29-0.46,0.43c-4.81-11.61-11.19-29.33-11.19-48.36V420.92H234.6v100.75c-0.18,19.77-6.15,37.86-10.9,48.16
		c-0.08-0.08-0.16-0.15-0.24-0.23l-0.75-0.69c-4.92-4.48-10.36-8.49-16.15-11.93c-0.51-0.31-1.02-0.59-1.54-0.89
		c8.31-19.97,12.28-48.79,12.28-85.97h-18.09c0,34.39-3.52,61.04-10.68,78.53c-10.39-3.56-21.44-5.39-32.68-5.39
		c-18.05,0-35.58,4.73-50.73,13.71c-5.79,3.43-11.22,7.44-16.19,11.97l-0.7,0.64c-3.15,2.9-6.3,6.32-9.66,10.44l-4.62,5.69l4.62,5.7
		c18.9,23.27,47.07,36.62,77.27,36.62c26.42,0,51.3-10.23,69.77-28.38c2.98,3.8,5.49,7.53,7.53,10.82
		c-8.3,15.28-10.28,30.09-5.06,39.53c3.18,5.76,9.21,9.06,15.91,9.06c0.34,0-0.33-0.01,0-0.03c0.06,0-0.05,0,0-0.01
		c2.36-0.14,5.24-0.7,7.27-1.64c0.02,0,0.04-0.01,0.06-0.03c3.05-1.44,5.61-3.75,7.36-6.79c6.06-10.46,1.96-26.6-4.6-39.77l0.1-0.16
		l-0.02-0.03c2.31-3.74,4.8-7.7,7.54-11.43c18.52,18.44,43.58,28.85,70.23,28.85c30.2,0,58.37-13.34,77.27-36.62l4.62-5.7
		L409.21,580.03z M114.36,572.52c12.35-7.31,26.69-11.18,41.49-11.18c7.99,0,15.84,1.13,23.32,3.32c-0.95,1.11-1.93,2.16-2.95,3.13
		c-14.53,13.84-36.25,12.81-61.41,11.62c-3.22-0.15-6.49-0.3-9.78-0.42C107.97,576.64,111.09,574.46,114.36,572.52z M155.85,609.97
		c-15.77,0-30.85-4.44-43.72-12.59c0.61,0.03,1.21,0.05,1.82,0.08c6.74,0.32,13.53,0.64,20.25,0.64c20.05,0,39.42-2.87,54.51-17.24
		c2.76-2.63,5.31-5.6,7.65-8.9c0.32,0.18,0.64,0.35,0.96,0.54c4.74,2.81,9.17,6.09,13.15,9.71l0.71,0.65
		c0.93,0.87,1.87,1.79,2.84,2.8C198.82,601.2,178.01,609.97,155.85,609.97z M235.66,584.35c2.05-3.8,5.81-10.13,8.34-16.8
		c2.36,6.56,6.28,13.03,8.04,16.8c-2.48,3.01-5.79,6.09-7.86,9.18 M246.94,644.43c-0.36,0.36-1.27,1.08-2.94,1.08
		c-1.54,0-2.3-0.45-3.01-1.15c-2.01-2.01,0.16-8.23,3.01-16.08C246.88,636.53,249,642.38,246.94,644.43z M331.94,609.97
		c-22.16,0-42.97-8.77-58.18-24.29c0.97-1.01,1.91-1.94,2.84-2.8l0.67-0.61c4.03-3.66,8.46-6.94,13.2-9.75
		c0.12-0.07,0.25-0.14,0.37-0.21c2.34,3.32,4.89,6.31,7.65,8.94c14.75,14.04,33.7,16.86,53.35,16.86c6.61,0,13.31-0.32,19.95-0.64
		c1.34-0.06,2.69-0.13,4.03-0.19C362.92,605.5,347.78,609.97,331.94,609.97z M370.93,579.43c-24.6,1.17-45.84,2.18-59.95-11.26
		c-1.06-1.01-2.09-2.12-3.08-3.3c7.7-2.33,15.79-3.53,24.04-3.53c14.8,0,29.14,3.87,41.49,11.18c3.24,1.92,6.33,4.08,9.24,6.41
		C378.7,579.06,374.77,579.24,370.93,579.43z"/>
	<g>
		<path d="M451.96,629.76V470.4h31.87v159.35H451.96z M488.61,597.89h70.12v31.87h-52.36L488.61,597.89z"/>
		<path d="M625.65,514.11c8.2,0,15.86,1.56,22.99,4.67c7.13,3.11,13.35,7.32,18.67,12.63c5.31,5.31,9.52,11.54,12.63,18.67
			c3.11,7.14,4.67,14.72,4.67,22.76c0,8.05-1.56,15.63-4.67,22.77c-3.11,7.14-7.32,13.36-12.63,18.67
			c-5.31,5.31-11.54,9.53-18.67,12.63c-7.14,3.11-14.8,4.67-22.99,4.67c-8.2,0-15.86-1.56-22.99-4.67
			c-7.14-3.11-13.36-7.32-18.67-12.63c-5.31-5.31-9.53-11.53-12.63-18.67c-3.11-7.13-4.67-14.72-4.67-22.77
			c0-8.04,1.55-15.63,4.67-22.76c3.11-7.13,7.32-13.35,12.63-18.67c5.31-5.31,11.53-9.52,18.67-12.63
			C609.79,515.67,617.46,514.11,625.65,514.11z M625.65,604.49c3.79,0,7.32-0.83,10.58-2.5c3.26-1.67,6.15-3.98,8.65-6.94
			c2.51-2.96,4.48-6.37,5.92-10.24c1.44-3.87,2.16-8.08,2.16-12.63c0-4.25-0.72-8.31-2.16-12.18c-1.44-3.87-3.41-7.21-5.92-10.02
			c-2.5-2.81-5.39-5.04-8.65-6.72c-3.26-1.67-6.79-2.5-10.58-2.5c-3.8,0-7.36,0.84-10.7,2.5c-3.34,1.67-6.26,3.91-8.76,6.72
			c-2.5,2.81-4.48,6.15-5.92,10.02c-1.44,3.87-2.16,7.93-2.16,12.18c0,4.55,0.72,8.76,2.16,12.63c1.44,3.87,3.42,7.28,5.92,10.24
			c2.5,2.96,5.42,5.28,8.76,6.94C618.29,603.66,621.86,604.49,625.65,604.49z"/>
		<path d="M740.39,590.83c0,3.49,1.25,6.45,3.76,8.88c2.5,2.43,5.5,3.64,8.99,3.64h22.08v26.41h-22.08c-5.92,0-11.5-1.1-16.73-3.3
			c-5.24-2.2-9.79-5.24-13.66-9.11c-3.87-3.87-6.94-8.38-9.22-13.55c-2.28-5.16-3.41-10.7-3.41-16.62v-34.15h-16.39v-25.27h16.39
			v-41.2h30.28V590.83z M775.22,527.77v25.27h-16.85l-14.11-25.27H775.22z"/>
		<path d="M853.98,601.07l10.93,19.81v0.23c-7.89,6.98-17.68,10.47-29.37,10.47c-18.52,0-31.64-5.01-39.38-15.02
			c-7.14-8.95-10.7-23.22-10.7-42.8v-57.82h31.19v57.82c0,4.1,0.11,8.05,0.34,11.84c0.23,3.8,1.06,7.14,2.5,10.02
			c1.44,2.88,3.68,5.2,6.72,6.94c3.03,1.75,7.36,2.62,12.98,2.62c2.58,0,5.08-0.38,7.51-1.14c2.43-0.76,4.7-1.74,6.83-2.96H853.98z
			 M901.79,515.93v114.51H870.6V515.93H901.79z"/>
		<path d="M971.45,562.15c5.01,1.67,9.6,3.38,13.77,5.12c4.17,1.75,7.81,3.83,10.93,6.26c3.11,2.43,5.54,5.35,7.28,8.76
			c1.74,3.41,2.62,7.48,2.62,12.18v0.23c0,11.54-3.83,20.57-11.5,27.09c-7.67,6.53-18.4,9.79-32.21,9.79
			c-8.65,0-17.15-1.49-25.5-4.47c-8.35-2.98-16.16-7.23-23.45-12.74l-0.23-0.23l0.23-0.23l15.48-24.44l0.23,0.23
			c4.55,4.86,9.71,8.54,15.48,11.04c5.77,2.5,11.91,3.76,18.44,3.76c8.95,0,13.43-2.87,13.43-8.63c0-2.72-1.44-4.77-4.33-6.13
			c-2.88-1.36-6.3-2.65-10.24-3.86c-0.76-0.3-1.48-0.49-2.16-0.57c-0.68-0.07-1.4-0.26-2.16-0.57c-4.55-1.21-9.11-2.54-13.66-3.97
			s-8.65-3.41-12.29-5.9c-3.64-2.5-6.64-5.67-8.99-9.54c-2.35-3.86-3.53-8.82-3.53-14.88v-0.45c0-5.3,0.99-10.14,2.96-14.53
			c1.97-4.39,4.78-8.17,8.42-11.35c3.64-3.18,8.04-5.64,13.2-7.38c5.16-1.74,10.85-2.61,17.07-2.61c7.28,0,14.64,1.1,22.08,3.3
			c7.43,2.2,14.34,5.43,20.72,9.67v0.46l-13.89,25.27l-0.23-0.23c-3.49-3.49-7.82-6.26-12.98-8.31c-5.16-2.05-10.62-3.07-16.39-3.07
			c-1.06,0-2.28,0.08-3.64,0.23c-1.37,0.15-2.62,0.53-3.76,1.14c-1.14,0.61-2.09,1.41-2.84,2.39c-0.76,0.99-1.14,2.39-1.14,4.21
			c0,1.37,0.6,2.62,1.82,3.76c1.21,1.14,2.77,2.2,4.67,3.19c1.9,0.99,4.02,1.93,6.37,2.85c2.35,0.91,4.67,1.75,6.94,2.5
			c0.46,0,0.95,0.08,1.48,0.23C970.5,561.84,970.99,562,971.45,562.15z"/>
	</g>
</g>
</svg>
